<svg xmlns="http://www.w3.org/2000/svg" version="1.1" xmlns:xlink="http://www.w3.org/1999/xlink" xmlns:svgjs="http://svgjs.dev/svgjs" width="1500" height="939" viewBox="0 0 1500 939"><g transform="matrix(1,0,0,1,-0.9090909090909918,183.72783968719455)"><svg viewBox="0 0 396 248" data-background-color="#ffffff" preserveAspectRatio="xMidYMid meet" height="939" width="1500" xmlns="http://www.w3.org/2000/svg" xmlns:xlink="http://www.w3.org/1999/xlink"><g id="tight-bounds" transform="matrix(1,0,0,1,0.2400000000000091,0.4000000000000057)"><svg viewBox="0 0 395.52 247.2" height="247.2" width="395.52"><g><svg></svg></g><g><svg viewBox="0 0 395.52 247.2" height="247.2" width="395.52"><g transform="matrix(1,0,0,1,75.54432,48.627388855877996)"><svg viewBox="0 0 244.43135999999998 149.945222288244" height="149.945222288244" width="244.43135999999998"><g><svg viewBox="0 0 244.43135999999998 149.945222288244" height="149.945222288244" width="244.43135999999998"><g transform="matrix(1,0,0,1,0,104.80598701390933)"><svg viewBox="0 0 244.43135999999998 45.13923527433465" height="45.13923527433465" width="244.43135999999998"><g id="textblocktransform"><svg viewBox="0 0 244.43135999999998 45.13923527433465" height="45.13923527433465" width="244.43135999999998" id="textblock"><g><svg viewBox="0 0 244.43135999999998 24.345946592445323" height="24.345946592445323" width="244.43135999999998"><g transform="matrix(1,0,0,1,0,0)"><svg width="244.43135999999998" viewBox="2.7 -37.75 502.90000000000003 50.1" height="24.345946592445323" data-palette-color="#306395"><g class="wordmark-text-0" data-fill-palette-color="primary" id="text-0"><path d="M22.15-35.3L22.15-35.3Q23.35-30.45 23.9-26.38 24.45-22.3 24.45-18.5L24.45-18.5Q24.45-7.15 21.35-1.58 18.25 4 12 4L12 4Q7.3 4 5-0.35 2.7-4.7 2.7-13.6L2.7-13.6Q2.7-18.2 3.45-23.25 4.2-28.3 5.25-31.4L5.25-31.4Q5.65-31.55 6.3-31.63 6.95-31.7 7.5-31.7L7.5-31.7Q7.95-31.7 8.35-31.65 8.75-31.6 9.1-31.5L9.1-31.5Q8-26.9 7.45-22.65 6.9-18.4 6.9-14.7L6.9-14.7Q6.9-6.45 8.25-2.78 9.6 0.9 12.7 0.9L12.7 0.9Q16.35 0.9 18.32-3.55 20.3-8 20.3-16.05L20.3-16.05Q20.3-20.9 19.75-25.23 19.2-29.55 17.9-34.55L17.9-34.55Q18.8-34.85 19.88-35.02 20.95-35.2 22.15-35.3ZM33.65-8.35L33.65-8.35Q33.65-6 33.75-3.03 33.85-0.05 34 1.3L34 1.3Q33.35 1.5 32.45 1.65 31.55 1.8 30.7 1.8L30.7 1.8Q30.35-3.45 30.1-11.8 29.85-20.15 29.85-25.95L29.85-25.95Q30.35-26.2 31.05-26.35 31.75-26.5 32.5-26.5L32.5-26.5Q33-26.5 33.47-26.45 33.95-26.4 34.45-26.3L34.45-26.3Q34.35-25.4 34.22-23.43 34.1-21.45 34.05-20.85L34.05-20.85Q35.7-23.6 37.55-24.95 39.4-26.3 41.45-26.3L41.45-26.3Q44.55-26.3 45.97-24.03 47.4-21.75 47.4-16.9L47.4-16.9Q47.4-13 46.77-8.15 46.15-3.3 45.45-0.55L45.45-0.55Q44.65-0.6 43.67-0.78 42.7-0.95 41.9-1.2L41.9-1.2Q42.8-6.1 43.2-9.9 43.6-13.7 43.6-17.05L43.6-17.05Q43.6-20.2 42.82-21.6 42.05-23 40.3-23L40.3-23Q38.55-23 36.82-21.25 35.1-19.5 33.85-16.45L33.85-16.45Q33.75-12.85 33.7-11.2 33.65-9.55 33.65-8.35ZM64-10.35L64-10.35Q64.8-10.25 65.57-10.03 66.34-9.8 66.9-9.45L66.9-9.45Q66.8-5.25 65.22-2.88 63.65-0.5 60.95-0.5L60.95-0.5Q57.8-0.5 56.2-4.08 54.6-7.65 54.6-14.65L54.6-14.65Q54.6-16.95 54.75-19.25 54.9-21.55 55.2-23.95L55.2-23.95Q54.25-24 53.32-24.15 52.4-24.3 51.45-24.5L51.45-24.5Q51.5-25.2 51.65-25.85 51.8-26.5 52.05-27.05L52.05-27.05Q53-26.85 53.85-26.7 54.7-26.55 55.55-26.5L55.55-26.5Q55.75-27.8 56.07-29.33 56.4-30.85 56.95-33.1L56.95-33.1Q58-33.05 59.02-32.88 60.05-32.7 61-32.4L61-32.4Q60.5-30.75 60.1-29.2 59.7-27.65 59.45-26.2L59.45-26.2Q61.45-26.15 63.35-26.23 65.25-26.3 67.05-26.45L67.05-26.45Q67.05-25.95 66.92-25.33 66.8-24.7 66.59-24L66.59-24Q64.75-23.8 62.82-23.73 60.9-23.65 59-23.7L59-23.7Q58.65-21.35 58.45-18.9 58.25-16.45 58.25-14.1L58.25-14.1Q58.25-8.8 59.02-6.03 59.8-3.25 61.25-3.25L61.25-3.25Q62.6-3.25 63.27-4.98 63.95-6.7 64-10.35ZM74.89-15.65L74.89-15.65Q76.34-15.15 78.02-14.88 79.69-14.6 81.54-14.6L81.54-14.6Q82.04-14.6 82.72-14.65 83.39-14.7 83.69-14.8L83.69-14.8Q84.09-16.25 84.27-17.48 84.44-18.7 84.44-19.7L84.44-19.7Q84.44-21.9 83.72-22.85 82.99-23.8 81.39-23.8L81.39-23.8Q79.29-23.8 77.54-21.55 75.79-19.3 74.89-15.65ZM86.04-8.5L86.04-8.5Q86.84-8.35 87.67-7.9 88.49-7.45 89.09-6.85L89.09-6.85Q88.14-4 85.22-1.73 82.29 0.55 79.14 0.55L79.14 0.55Q75.09 0.55 72.77-2.6 70.44-5.75 70.44-11.05L70.44-11.05Q70.44-17 73.77-21.75 77.09-26.5 81.69-26.5L81.69-26.5Q84.64-26.5 86.37-24.63 88.09-22.75 88.09-19.55L88.09-19.55Q88.09-17.85 87.77-16.13 87.44-14.4 86.89-12.85L86.89-12.85Q85.89-12.5 84.47-12.33 83.04-12.15 80.94-12.15L80.94-12.15Q79.34-12.15 77.67-12.43 75.99-12.7 74.44-13.25L74.44-13.25Q74.34-12.65 74.32-12.08 74.29-11.5 74.29-10.95L74.29-10.95Q74.29-7 75.67-4.58 77.04-2.15 79.34-2.15L79.34-2.15Q81.34-2.15 83.34-4.03 85.34-5.9 86.04-8.5ZM98.09 0.1L98.09 0.1Q97.69 0.25 97.14 0.35 96.59 0.45 96.04 0.45L96.04 0.45Q95.64 0.5 95.32 0.45 94.99 0.4 94.69 0.3L94.69 0.3Q93.44-6.05 93.02-13 92.59-19.95 92.94-27L92.94-27Q93.29-27.15 93.79-27.23 94.29-27.3 95.29-27.3L95.29-27.3Q95.79-27.3 96.27-27.23 96.74-27.15 97.24-27L97.24-27Q96.94-24.85 96.79-23.35 96.64-21.85 96.59-20.5L96.59-20.5Q97.74-24.4 99.64-26.65 101.54-28.9 103.59-28.9L103.59-28.9Q105.59-28.9 106.54-27.43 107.49-25.95 107.49-22.9L107.49-22.9Q107.49-22.3 107.44-21.6 107.39-20.9 107.34-20.1L107.34-20.1Q106.74-19.95 105.92-19.88 105.09-19.8 104.14-19.85L104.14-19.85Q104.24-20.6 104.29-21.28 104.34-21.95 104.34-22.6L104.34-22.6Q104.34-24.2 103.94-24.98 103.54-25.75 102.74-25.75L102.74-25.75Q101.04-25.75 99.34-22.18 97.64-18.6 96.64-12.9L96.64-12.9Q96.79-10.05 97.14-6.83 97.49-3.6 98.09 0.1ZM114.94-8.35L114.94-8.35Q114.94-6 115.04-3.03 115.14-0.05 115.29 1.3L115.29 1.3Q114.64 1.5 113.74 1.65 112.84 1.8 111.99 1.8L111.99 1.8Q111.64-3.45 111.39-11.8 111.14-20.15 111.14-25.95L111.14-25.95Q111.64-26.2 112.34-26.35 113.04-26.5 113.79-26.5L113.79-26.5Q114.29-26.5 114.76-26.45 115.24-26.4 115.74-26.3L115.74-26.3Q115.64-25.4 115.51-23.43 115.39-21.45 115.34-20.85L115.34-20.85Q116.99-23.6 118.84-24.95 120.69-26.3 122.74-26.3L122.74-26.3Q125.84-26.3 127.26-24.03 128.69-21.75 128.69-16.9L128.69-16.9Q128.69-13 128.06-8.15 127.44-3.3 126.74-0.55L126.74-0.55Q125.94-0.6 124.96-0.78 123.99-0.95 123.19-1.2L123.19-1.2Q124.09-6.1 124.49-9.9 124.89-13.7 124.89-17.05L124.89-17.05Q124.89-20.2 124.11-21.6 123.34-23 121.59-23L121.59-23Q119.84-23 118.11-21.25 116.39-19.5 115.14-16.45L115.14-16.45Q115.04-12.85 114.99-11.2 114.94-9.55 114.94-8.35ZM137.64-15.65L137.64-15.65Q139.09-15.15 140.76-14.88 142.44-14.6 144.29-14.6L144.29-14.6Q144.79-14.6 145.46-14.65 146.14-14.7 146.44-14.8L146.44-14.8Q146.84-16.25 147.01-17.48 147.19-18.7 147.19-19.7L147.19-19.7Q147.19-21.9 146.46-22.85 145.74-23.8 144.14-23.8L144.14-23.8Q142.04-23.8 140.29-21.55 138.54-19.3 137.64-15.65ZM148.79-8.5L148.79-8.5Q149.59-8.35 150.41-7.9 151.24-7.45 151.84-6.85L151.84-6.85Q150.89-4 147.96-1.73 145.04 0.55 141.89 0.55L141.89 0.55Q137.84 0.55 135.51-2.6 133.19-5.75 133.19-11.05L133.19-11.05Q133.19-17 136.51-21.75 139.84-26.5 144.44-26.5L144.44-26.5Q147.39-26.5 149.11-24.63 150.84-22.75 150.84-19.55L150.84-19.55Q150.84-17.85 150.51-16.13 150.19-14.4 149.64-12.85L149.64-12.85Q148.64-12.5 147.21-12.33 145.79-12.15 143.69-12.15L143.69-12.15Q142.09-12.15 140.41-12.43 138.74-12.7 137.19-13.25L137.19-13.25Q137.09-12.65 137.06-12.08 137.04-11.5 137.04-10.95L137.04-10.95Q137.04-7 138.41-4.58 139.79-2.15 142.09-2.15L142.09-2.15Q144.09-2.15 146.09-4.03 148.09-5.9 148.79-8.5ZM174.23-16.3L174.23-16.3Q174.23-12.25 173.01-6.83 171.78-1.4 170.48 1.6L170.48 1.6Q169.63 1.5 168.81 1.25 167.98 1 167.23 0.6L167.23 0.6Q168.73-3.45 169.56-7.9 170.38-12.35 170.38-16.25L170.38-16.25Q170.38-20.15 169.61-21.73 168.83-23.3 166.88-23.3L166.88-23.3Q164.83-23.3 162.83-21.03 160.83-18.75 159.73-14.9L159.73-14.9 159.73-14.75Q159.73-11.95 159.98-7.8 160.23-3.65 160.48-1.75L160.48-1.75Q159.93-1.6 158.93-1.48 157.93-1.35 157.03-1.35L157.03-1.35Q156.63-6.6 156.43-11.23 156.23-15.85 156.23-19.75L156.23-19.75Q156.23-23.8 156.53-29.13 156.83-34.45 157.23-37.05L157.23-37.05Q157.88-37.4 158.58-37.58 159.28-37.75 159.98-37.75L159.98-37.75Q160.48-37.75 161.13-37.58 161.78-37.4 161.98-37.35L161.98-37.35Q161.18-33.55 160.63-29.13 160.08-24.7 159.88-20.3L159.88-20.3Q161.43-23.2 163.43-24.75 165.43-26.3 167.58-26.3L167.58-26.3Q171.08-26.3 172.66-23.93 174.23-21.55 174.23-16.3ZM183.08-8.35L183.08-8.35Q183.08-5.45 183.18-2.83 183.28-0.2 183.43 0.95L183.43 0.95Q182.78 1.15 181.88 1.3 180.98 1.45 180.13 1.45L180.13 1.45Q179.78-4.45 179.48-12.6 179.18-20.75 179.18-26.1L179.18-26.1Q179.68-26.35 180.38-26.5 181.08-26.65 181.83-26.65L181.83-26.65Q182.58-26.65 183.01-26.6 183.43-26.55 183.83-26.45L183.83-26.45Q183.78-25.95 183.66-24.48 183.53-23 183.38-20.55L183.38-20.55Q184.93-22.95 186.76-24.15 188.58-25.35 190.68-25.35L190.68-25.35Q192.48-25.35 193.66-24.5 194.83-23.65 195.48-21.9L195.48-21.9Q197.23-25 199.21-26.55 201.18-28.1 203.48-28.1L203.48-28.1Q206.43-28.1 207.78-25.85 209.13-23.6 209.13-18.75L209.13-18.75Q209.13-14.35 208.31-8.8 207.48-3.25 206.28 1.1L206.28 1.1Q205.38 1.05 204.36 0.88 203.33 0.7 202.63 0.45L202.63 0.45Q203.98-4.95 204.66-9.73 205.33-14.5 205.33-18.9L205.33-18.9Q205.33-22.05 204.61-23.43 203.88-24.8 202.23-24.8L202.23-24.8Q200.58-24.8 198.98-23.15 197.38-21.5 196.18-18.55L196.18-18.55Q196.23-17.7 196.26-17.13 196.28-16.55 196.28-16.05L196.28-16.05Q196.28-12.5 195.68-8 195.08-3.5 194.33-0.55L194.33-0.55Q193.58-0.6 192.61-0.78 191.63-0.95 190.83-1.2L190.83-1.2Q191.78-6.25 192.16-9.7 192.53-13.15 192.53-16.1L192.53-16.1Q192.53-19.3 191.81-20.68 191.08-22.05 189.43-22.05L189.43-22.05Q187.68-22.05 186.01-20.5 184.33-18.95 183.23-16.25L183.23-16.25Q183.18-14.25 183.13-12.18 183.08-10.1 183.08-8.35ZM218.08-15.65L218.08-15.65Q219.53-15.15 221.2-14.88 222.88-14.6 224.73-14.6L224.73-14.6Q225.23-14.6 225.9-14.65 226.58-14.7 226.88-14.8L226.88-14.8Q227.28-16.25 227.45-17.48 227.63-18.7 227.63-19.7L227.63-19.7Q227.63-21.9 226.9-22.85 226.18-23.8 224.58-23.8L224.58-23.8Q222.48-23.8 220.73-21.55 218.98-19.3 218.08-15.65ZM229.23-8.5L229.23-8.5Q230.03-8.35 230.85-7.9 231.68-7.45 232.28-6.85L232.28-6.85Q231.33-4 228.4-1.73 225.48 0.55 222.33 0.55L222.33 0.55Q218.28 0.55 215.95-2.6 213.63-5.75 213.63-11.05L213.63-11.05Q213.63-17 216.95-21.75 220.28-26.5 224.88-26.5L224.88-26.5Q227.83-26.5 229.55-24.63 231.28-22.75 231.28-19.55L231.28-19.55Q231.28-17.85 230.95-16.13 230.63-14.4 230.08-12.85L230.08-12.85Q229.08-12.5 227.65-12.33 226.23-12.15 224.13-12.15L224.13-12.15Q222.53-12.15 220.85-12.43 219.18-12.7 217.63-13.25L217.63-13.25Q217.53-12.65 217.5-12.08 217.48-11.5 217.48-10.95L217.48-10.95Q217.48-7 218.85-4.58 220.23-2.15 222.53-2.15L222.53-2.15Q224.53-2.15 226.53-4.03 228.53-5.9 229.23-8.5ZM240.18-8.35L240.18-8.35Q240.18-6 240.28-3.03 240.38-0.05 240.53 1.3L240.53 1.3Q239.88 1.5 238.98 1.65 238.08 1.8 237.23 1.8L237.23 1.8Q236.88-3.45 236.63-11.8 236.38-20.15 236.38-25.95L236.38-25.95Q236.88-26.2 237.58-26.35 238.28-26.5 239.03-26.5L239.03-26.5Q239.53-26.5 240-26.45 240.48-26.4 240.98-26.3L240.98-26.3Q240.88-25.4 240.75-23.43 240.63-21.45 240.58-20.85L240.58-20.85Q242.23-23.6 244.08-24.95 245.93-26.3 247.98-26.3L247.98-26.3Q251.08-26.3 252.5-24.03 253.93-21.75 253.93-16.9L253.93-16.9Q253.93-13 253.3-8.15 252.68-3.3 251.98-0.55L251.98-0.55Q251.18-0.6 250.2-0.78 249.23-0.95 248.43-1.2L248.43-1.2Q249.33-6.1 249.73-9.9 250.13-13.7 250.13-17.05L250.13-17.05Q250.13-20.2 249.35-21.6 248.58-23 246.83-23L246.83-23Q245.08-23 243.35-21.25 241.63-19.5 240.38-16.45L240.38-16.45Q240.28-12.85 240.23-11.2 240.18-9.55 240.18-8.35ZM268.02-14.4L268.02-14.4Q271.62-11.8 272.75-9.98 273.87-8.15 273.87-5.95L273.87-5.95Q273.87-2.5 271.67-0.25 269.47 2 266.07 2L266.07 2Q262.52 2 260.3-0.55 258.07-3.1 258.07-7.3L258.07-7.3Q258.82-7.55 259.65-7.68 260.47-7.8 261.27-7.75L261.27-7.75Q261.17-4.4 262.45-2.5 263.72-0.6 266.12-0.6L266.12-0.6Q267.92-0.6 269-1.83 270.07-3.05 270.07-5.15L270.07-5.15Q270.07-6.85 269.12-8.33 268.17-9.8 265.02-12.1L265.02-12.1Q261.32-14.8 260.17-16.73 259.02-18.65 259.02-21L259.02-21Q259.02-24.15 260.92-26.03 262.82-27.9 266.07-27.9L266.07-27.9Q269.17-27.9 270.95-26.1 272.72-24.3 273.42-20.35L273.42-20.35Q272.67-20 271.9-19.83 271.12-19.65 270.27-19.55L270.27-19.55Q269.87-22.5 268.85-23.85 267.82-25.2 266.02-25.2L266.02-25.2Q264.52-25.2 263.65-24.2 262.77-23.2 262.77-21.5L262.77-21.5Q262.77-19.75 263.77-18.25 264.77-16.75 268.02-14.4ZM296.02-15L296.02-15Q296.02-7.4 292.89-2.85 289.77 1.7 284.67 1.7L284.67 1.7Q282.92 1.7 281.47 1.15 280.02 0.6 278.72-0.55L278.72-0.55Q278.57-3.3 278.47-7.1 278.37-10.9 278.37-15.95L278.37-15.95Q278.37-21.45 278.62-26.93 278.87-32.4 279.27-35.65L279.27-35.65Q279.82-35.85 280.5-35.95 281.17-36.05 282.02-36.05L282.02-36.05Q282.42-36.05 282.77-36 283.12-35.95 283.82-35.8L283.82-35.8Q283.37-33.05 282.97-29.53 282.57-26 282.27-21.8L282.27-21.8Q283.52-23.7 285.17-24.63 286.82-25.55 288.92-25.55L288.92-25.55Q292.37-25.55 294.19-22.85 296.02-20.15 296.02-15ZM281.97-2.2L281.97-2.2Q282.57-1.65 283.32-1.4 284.07-1.15 284.92-1.15L284.92-1.15Q288.32-1.15 290.17-4.85 292.02-8.55 292.02-15.2L292.02-15.2Q292.02-18.95 290.92-20.83 289.82-22.7 287.62-22.7L287.62-22.7Q286.02-22.7 284.5-21.08 282.97-19.45 282.02-16.65L282.02-16.65Q281.97-15.05 281.92-13.5 281.87-11.95 281.87-10.5L281.87-10.5Q281.87-6.5 281.89-4.95 281.92-3.4 281.97-2.2ZM303.97-15.65L303.97-15.65Q305.42-15.15 307.09-14.88 308.77-14.6 310.62-14.6L310.62-14.6Q311.12-14.6 311.79-14.65 312.47-14.7 312.77-14.8L312.77-14.8Q313.17-16.25 313.34-17.48 313.52-18.7 313.52-19.7L313.52-19.7Q313.52-21.9 312.79-22.85 312.07-23.8 310.47-23.8L310.47-23.8Q308.37-23.8 306.62-21.55 304.87-19.3 303.97-15.65ZM315.12-8.5L315.12-8.5Q315.92-8.35 316.74-7.9 317.57-7.45 318.17-6.85L318.17-6.85Q317.22-4 314.29-1.73 311.37 0.55 308.22 0.55L308.22 0.55Q304.17 0.55 301.84-2.6 299.52-5.75 299.52-11.05L299.52-11.05Q299.52-17 302.84-21.75 306.17-26.5 310.77-26.5L310.77-26.5Q313.72-26.5 315.44-24.63 317.17-22.75 317.17-19.55L317.17-19.55Q317.17-17.85 316.84-16.13 316.52-14.4 315.97-12.85L315.97-12.85Q314.97-12.5 313.54-12.33 312.12-12.15 310.02-12.15L310.02-12.15Q308.42-12.15 306.74-12.43 305.07-12.7 303.52-13.25L303.52-13.25Q303.42-12.65 303.39-12.08 303.37-11.5 303.37-10.95L303.37-10.95Q303.37-7 304.74-4.58 306.12-2.15 308.42-2.15L308.42-2.15Q310.42-2.15 312.42-4.03 314.42-5.9 315.12-8.5ZM327.16 0.1L327.16 0.1Q326.76 0.25 326.21 0.35 325.66 0.45 325.12 0.45L325.12 0.45Q324.71 0.5 324.39 0.45 324.06 0.4 323.76 0.3L323.76 0.3Q322.51-6.05 322.09-13 321.66-19.95 322.01-27L322.01-27Q322.37-27.15 322.87-27.23 323.37-27.3 324.37-27.3L324.37-27.3Q324.87-27.3 325.34-27.23 325.81-27.15 326.31-27L326.31-27Q326.01-24.85 325.87-23.35 325.71-21.85 325.66-20.5L325.66-20.5Q326.81-24.4 328.71-26.65 330.62-28.9 332.66-28.9L332.66-28.9Q334.66-28.9 335.62-27.43 336.56-25.95 336.56-22.9L336.56-22.9Q336.56-22.3 336.51-21.6 336.46-20.9 336.41-20.1L336.41-20.1Q335.81-19.95 334.99-19.88 334.16-19.8 333.21-19.85L333.21-19.85Q333.31-20.6 333.37-21.28 333.41-21.95 333.41-22.6L333.41-22.6Q333.41-24.2 333.01-24.98 332.62-25.75 331.81-25.75L331.81-25.75Q330.12-25.75 328.41-22.18 326.71-18.6 325.71-12.9L325.71-12.9Q325.87-10.05 326.21-6.83 326.56-3.6 327.16 0.1ZM357.46-17.05L357.46-17.05Q357.46-13.75 356.56-8.3 355.66-2.85 354.41 1.7L354.41 1.7Q353.66 1.7 352.81 1.55 351.96 1.4 351.16 1.15L351.16 1.15Q351.21 0.95 351.26 0.68 351.31 0.4 351.46-0.05L351.46-0.05Q351.61-0.85 351.71-1.23 351.81-1.6 351.86-1.9L351.86-1.9Q350.81-1.15 349.49-0.75 348.16-0.35 346.66-0.35L346.66-0.35Q343.26-0.35 341.16-2.18 339.06-4 339.06-7L339.06-7Q339.06-10.25 341.81-11.95 344.56-13.65 349.91-13.65L349.91-13.65Q350.71-13.65 351.46-13.63 352.21-13.6 353.46-13.55L353.46-13.55Q353.51-14.05 353.51-14.65 353.51-15.25 353.51-16.55L353.51-16.55Q353.51-20.55 352.54-22.35 351.56-24.15 349.31-24.15L349.31-24.15Q347.01-24.15 345.46-22.13 343.91-20.1 343.81-17L343.81-17Q342.41-17.2 341.56-17.68 340.71-18.15 340.26-18.95L340.26-18.95Q340.86-22.25 343.59-24.55 346.31-26.85 349.81-26.85L349.81-26.85Q353.61-26.85 355.54-24.38 357.46-21.9 357.46-17.05ZM343.01-6.9L343.01-6.9Q343.01-5.05 344.21-3.98 345.41-2.9 347.36-2.9L347.36-2.9Q348.76-2.9 350.04-3.33 351.31-3.75 352.41-4.6L352.41-4.6Q352.81-6.65 353.04-8.25 353.26-9.85 353.36-11.45L353.36-11.45Q348.21-11.75 345.61-10.63 343.01-9.5 343.01-6.9ZM373.91-10.35L373.91-10.35Q374.71-10.25 375.49-10.03 376.26-9.8 376.81-9.45L376.81-9.45Q376.71-5.25 375.13-2.88 373.56-0.5 370.86-0.5L370.86-0.5Q367.71-0.5 366.11-4.08 364.51-7.65 364.51-14.65L364.51-14.65Q364.51-16.95 364.66-19.25 364.81-21.55 365.11-23.95L365.11-23.95Q364.16-24 363.24-24.15 362.31-24.3 361.36-24.5L361.36-24.5Q361.41-25.2 361.56-25.85 361.71-26.5 361.96-27.05L361.96-27.05Q362.91-26.85 363.76-26.7 364.61-26.55 365.46-26.5L365.46-26.5Q365.66-27.8 365.99-29.33 366.31-30.85 366.86-33.1L366.86-33.1Q367.91-33.05 368.94-32.88 369.96-32.7 370.91-32.4L370.91-32.4Q370.41-30.75 370.01-29.2 369.61-27.65 369.36-26.2L369.36-26.2Q371.36-26.15 373.26-26.23 375.16-26.3 376.96-26.45L376.96-26.45Q376.96-25.95 376.83-25.33 376.71-24.7 376.51-24L376.51-24Q374.66-23.8 372.74-23.73 370.81-23.65 368.91-23.7L368.91-23.7Q368.56-21.35 368.36-18.9 368.16-16.45 368.16-14.1L368.16-14.1Q368.16-8.8 368.94-6.03 369.71-3.25 371.16-3.25L371.16-3.25Q372.51-3.25 373.19-4.98 373.86-6.7 373.91-10.35ZM388.21 0.5L388.21 0.5Q384.56 0.5 382.68-3.05 380.81-6.6 380.81-13.5L380.81-13.5Q380.81-17 381.38-20.53 381.96-24.05 382.81-25.6L382.81-25.6Q383.26-25.75 383.71-25.83 384.16-25.9 384.61-25.9L384.61-25.9Q385.06-25.9 385.43-25.83 385.81-25.75 386.16-25.55L386.16-25.55Q385.41-23.15 385.01-20.05 384.61-16.95 384.61-13.35L384.61-13.35Q384.61-8.5 385.73-5.4 386.86-2.3 388.76-2.3L388.76-2.3Q391.11-2.3 392.33-5.9 393.56-9.5 393.56-16L393.56-16Q393.56-18 393.36-20.18 393.16-22.35 392.96-23.2L392.96-23.2Q393.71-23.55 394.81-23.75 395.91-23.95 396.91-23.95L396.91-23.95Q397.16-22.8 397.28-21.2 397.41-19.6 397.41-17.95L397.41-17.95Q397.41-9 395.08-4.25 392.76 0.5 388.21 0.5ZM405.66-8.35L405.66-8.35Q405.66-6 405.75-3.03 405.86-0.05 406 1.3L406 1.3Q405.36 1.5 404.46 1.65 403.56 1.8 402.71 1.8L402.71 1.8Q402.36-3.45 402.11-11.8 401.86-20.15 401.86-25.95L401.86-25.95Q402.36-26.2 403.06-26.35 403.75-26.5 404.5-26.5L404.5-26.5Q405-26.5 405.48-26.45 405.96-26.4 406.46-26.3L406.46-26.3Q406.36-25.4 406.23-23.43 406.11-21.45 406.06-20.85L406.06-20.85Q407.71-23.6 409.56-24.95 411.41-26.3 413.46-26.3L413.46-26.3Q416.56-26.3 417.98-24.03 419.41-21.75 419.41-16.9L419.41-16.9Q419.41-13 418.78-8.15 418.16-3.3 417.46-0.55L417.46-0.55Q416.66-0.6 415.68-0.78 414.71-0.95 413.91-1.2L413.91-1.2Q414.81-6.1 415.21-9.9 415.61-13.7 415.61-17.05L415.61-17.05Q415.61-20.2 414.83-21.6 414.06-23 412.31-23L412.31-23Q410.56-23 408.83-21.25 407.11-19.5 405.86-16.45L405.86-16.45Q405.75-12.85 405.71-11.2 405.66-9.55 405.66-8.35ZM428.55-12.85L428.55-12.85Q428.55-8.3 429.85-5.7 431.15-3.1 433.3-3.1L433.3-3.1Q434.95-3.1 436.13-4.78 437.3-6.45 438.15-10L438.15-10Q438.05-13.75 437.63-16.88 437.2-20 436.4-22.7L436.4-22.7Q435.95-22.85 435.43-22.93 434.9-23 434.35-23L434.35-23Q431.45-23 430-20.48 428.55-17.95 428.55-12.85ZM442.05-8.45L442.05-8.45Q442.05 1.65 439.4 7 436.75 12.35 432.1 12.35L432.1 12.35Q428.9 12.35 426.8 10.2 424.7 8.05 424.15 4.35L424.15 4.35Q424.9 3.8 425.83 3.4 426.75 3 427.7 2.8L427.7 2.8Q428.2 6.35 429.3 7.95 430.4 9.55 432.35 9.55L432.35 9.55Q434.85 9.55 436.35 6.03 437.85 2.5 438.15-4.25L438.15-4.25Q437.15-2.2 435.83-1.2 434.5-0.2 432.75-0.2L432.75-0.2Q428.95-0.2 426.73-3.58 424.5-6.95 424.5-12.7L424.5-12.7Q424.5-18.8 427.23-22.33 429.95-25.85 434.55-25.85L434.55-25.85Q436-25.85 437.53-25.5 439.05-25.15 440.35-24.5L440.35-24.5Q441.1-21.25 441.58-16.78 442.05-12.3 442.05-8.45Z" fill="#306395" data-fill-palette-color="primary"></path><path d="M473.5-35.3L473.5-35.3Q474.7-30.45 475.25-26.38 475.8-22.3 475.8-18.5L475.8-18.5Q475.8-7.15 472.7-1.58 469.6 4 463.35 4L463.35 4Q458.65 4 456.35-0.35 454.05-4.7 454.05-13.6L454.05-13.6Q454.05-18.2 454.8-23.25 455.55-28.3 456.6-31.4L456.6-31.4Q457-31.55 457.65-31.63 458.3-31.7 458.85-31.7L458.85-31.7Q459.3-31.7 459.7-31.65 460.1-31.6 460.45-31.5L460.45-31.5Q459.35-26.9 458.8-22.65 458.25-18.4 458.25-14.7L458.25-14.7Q458.25-6.45 459.6-2.78 460.95 0.9 464.05 0.9L464.05 0.9Q467.7 0.9 469.67-3.55 471.65-8 471.65-16.05L471.65-16.05Q471.65-20.9 471.1-25.23 470.55-29.55 469.25-34.55L469.25-34.55Q470.15-34.85 471.22-35.02 472.3-35.2 473.5-35.3ZM503-17.4L503-17.4Q502.9-12.55 503.55-8.08 504.2-3.6 505.6 1.05L505.6 1.05Q505 1.2 504.2 1.3 503.4 1.4 502.55 1.45L502.55 1.45Q501.85-0.3 501.3-2.02 500.75-3.75 500.3-5.55L500.3-5.55Q498.55-2.15 496.22-0.55 493.9 1.05 490.8 1.05L490.8 1.05Q486.3 1.05 483.65-3.25 481-7.55 481-14.95L481-14.95Q481-24.4 484.6-30.3 488.2-36.2 494.1-36.2L494.1-36.2Q498.15-36.2 500.45-33.05 502.75-29.9 502.75-24.5L502.75-24.5Q501.8-24.25 500.82-24.1 499.85-23.95 498.75-23.9L498.75-23.9Q498.65-28.55 497.22-30.93 495.8-33.3 493.15-33.3L493.15-33.3Q489.65-33.3 487.37-28.45 485.1-23.6 485.1-16.15L485.1-16.15Q485.1-9.5 486.82-5.83 488.55-2.15 491.65-2.15L491.65-2.15Q494.3-2.15 496.27-4.25 498.25-6.35 499.35-10.35L499.35-10.35Q499.15-11.8 498.97-13.43 498.8-15.05 498.7-16.95L498.7-16.95Q499.6-17.15 500.72-17.28 501.85-17.4 503-17.4Z" fill="#fab980" data-fill-palette-color="secondary"></path></g></svg></g></svg></g><g transform="matrix(1,0,0,1,94.93184860513057,30.093440280203446)"><svg viewBox="0 0 54.567662789738854 15.04579499413121" height="15.04579499413121" width="54.567662789738854"><g transform="matrix(1,0,0,1,0,0)"><svg width="54.567662789738854" viewBox="2.7 -31.2 108.8 31.75" height="15.04579499413121" data-palette-color="#fab980"><g class="slogan-text-1" data-fill-palette-color="secondary" id="text-1"><path d="M12.45 0.45Q7.2 0.45 2.7-1.8L2.7-1.8 3.8-4.55Q5.95-3.5 8.1-3.03 10.25-2.55 12.75-2.55L12.75-2.55Q16-2.55 18.65-3.55L18.65-3.55Q19.45-5.3 19.45-7.75L19.45-7.75Q19.45-10.3 17.95-11.6 16.45-12.9 12.75-13.85L12.75-13.85Q8.25-14.95 5.8-16.78 3.35-18.6 3.35-22.35L3.35-22.35Q3.35-26.25 5.65-28.73 7.95-31.2 13.35-31.2L13.35-31.2Q16.15-31.2 18.05-30.73 19.95-30.25 21.65-29.3L21.65-29.3 21.65-27.75Q21.65-25.85 20.9-23.5L20.9-23.5 18.7-23.5 18.2-27.95Q15-28.35 13.05-28.35L13.05-28.35Q9.5-28.35 8-27 6.5-25.65 6.5-22.75L6.5-22.75Q6.5-21.05 7.2-19.98 7.9-18.9 9.43-18.2 10.95-17.5 13.7-16.85L13.7-16.85Q18.45-15.75 20.55-13.93 22.65-12.1 22.65-8.7L22.65-8.7Q22.65-4.65 20.35-2.1 18.05 0.45 12.45 0.45L12.45 0.45Z" fill="#306395" data-fill-palette-color="primary"></path><path d="M52.5 0.55Q47.65 0.55 44.77-1.63 41.9-3.8 41.9-7.95L41.9-7.95Q41.9-11.4 43.55-13.45 45.2-15.5 48.6-16.8L48.6-16.8 48.6-17.2Q47.2-18.55 46.52-19.95 45.85-21.35 45.85-23.1L45.85-23.1Q45.85-26.5 48.05-28.35 50.25-30.2 54.2-30.2L54.2-30.2Q57.05-30.2 59.05-29.33 61.05-28.45 62.2-27.15L62.2-27.15 62.2-25.6Q62.2-24 61.6-22.3L61.6-22.3 59.5-22.3 59.1-26.5Q56.9-27.45 54.2-27.45L54.2-27.45Q51.5-27.45 50.22-26.4 48.95-25.35 48.95-23.15L48.95-23.15Q48.95-21.3 49.5-20.2 50.05-19.1 51.6-17.6L51.6-17.6 60.3-9.3Q61-11.55 61.6-15.75L61.6-15.75 64.55-15.05Q64-12.1 63.62-10.55 63.25-9 62.7-7.4L62.7-7.4 68.85-1.25 66.55 0.35 62.2-4.2 61.85-4.2Q61.25-2.2 60.4-0.7L60.4-0.7Q58.95-0.05 57.12 0.25 55.3 0.55 52.5 0.55L52.5 0.55ZM52.6-2.25Q54.55-2.25 55.77-2.4 57-2.55 58.15-2.9L58.15-2.9Q59-4.3 59.35-6.4L59.35-6.4 50.45-14.9Q47.7-14.05 46.35-12.43 45-10.8 45-7.95L45-7.95Q45-5 47.02-3.63 49.05-2.25 52.6-2.25L52.6-2.25Z" fill="#fab980" data-fill-palette-color="secondary"></path><path d="M98.65 0.45Q86.7 0.45 86.7-14.85L86.7-14.85Q86.7-23 89.65-27.1 92.6-31.2 99.55-31.2L99.55-31.2Q105.7-31.2 108.6-27.35 111.5-23.5 111.5-15.85L111.5-15.85Q111.5-7.75 108.55-3.65 105.6 0.45 98.65 0.45L98.65 0.45ZM99.35-2.5Q101.1-2.5 102.8-2.83 104.5-3.15 105.6-3.65L105.6-3.65Q106.85-5.9 107.6-8.83 108.35-11.75 108.35-15.15L108.35-15.15Q108.35-22 106.2-25.13 104.05-28.25 98.85-28.25L98.85-28.25Q97.05-28.25 95.27-27.93 93.5-27.6 92.45-27.05L92.45-27.05Q89.85-22.4 89.85-15.55L89.85-15.55Q89.85-8.7 91.97-5.6 94.1-2.5 99.35-2.5L99.35-2.5Z" fill="#306395" data-fill-palette-color="primary"></path></g></svg></g></svg></g></svg></g></svg></g><g transform="matrix(1,0,0,1,75.56018018080346,0)"><svg viewBox="0 0 93.31099963839308 93.31099963839308" height="93.31099963839308" width="93.31099963839308"><g><svg></svg></g><g id="icon-0"><svg viewBox="0 0 93.31099963839308 93.31099963839308" height="93.31099963839308" width="93.31099963839308"><g><path d="M0 46.656c0-25.767 20.888-46.656 46.656-46.656 25.767 0 46.656 20.888 46.655 46.656 0 25.767-20.888 46.656-46.655 46.655-25.767 0-46.656-20.888-46.656-46.655zM46.656 91.115c24.555 0 44.46-19.905 44.459-44.459 0-24.555-19.905-44.46-44.459-44.46-24.555 0-44.46 19.905-44.46 44.46 0 24.555 19.905 44.46 44.46 44.459z" data-fill-palette-color="accent" fill="#306395" stroke="transparent"></path><ellipse rx="46.188944821004576" ry="46.188944821004576" cx="46.65549981919654" cy="46.65549981919654" fill="#306395" stroke="transparent" stroke-width="0" fill-opacity="1" data-fill-palette-color="accent"></ellipse></g><g transform="matrix(1,0,0,1,19.757180801352682,19.757180801352682)"><svg viewBox="0 0 53.79663803568772 53.79663803568772" height="53.79663803568772" width="53.79663803568772"><g><svg xmlns="http://www.w3.org/2000/svg" xmlns:xlink="http://www.w3.org/1999/xlink" version="1.1" x="0" y="0" viewBox="0 0 48 48" enable-background="new 0 0 48 48" xml:space="preserve" height="53.79663803568772" width="53.79663803568772" class="icon-dxe-0" data-fill-palette-color="quaternary" id="dxe-0"><g fill="#ffffff" data-fill-palette-color="quaternary"><path d="M6 19.3H30C30.6 19.3 31 18.9 31 18.3V6.3C31 5.7 30.6 5.3 30 5.3H6C5.4 5.3 5 5.7 5 6.3V18.3C5 18.9 5.4 19.3 6 19.3M7 7.3H29V17.3H7z" fill="#ffffff" data-fill-palette-color="quaternary"></path><path d="M8.6 24.9H5.7C5.1 24.9 4.7 25.3 4.7 25.9S5.1 26.9 5.7 26.9H8.6C9.2 26.9 9.6 26.5 9.6 25.9S9.2 24.9 8.6 24.9" fill="#ffffff" data-fill-palette-color="quaternary"></path><path d="M15.8 24.9H13C12.4 24.9 12 25.3 12 25.9S12.4 26.9 13 26.9H15.9C16.5 26.9 16.9 26.5 16.9 25.9S16.4 24.9 15.8 24.9" fill="#ffffff" data-fill-palette-color="quaternary"></path><path d="M8.6 30H5.7C5.1 30 4.7 30.4 4.7 31S5.1 32 5.7 32H8.6C9.2 32 9.6 31.6 9.6 31S9.2 30 8.6 30" fill="#ffffff" data-fill-palette-color="quaternary"></path><path d="M15.8 30H13C12.4 30 12 30.4 12 31S12.4 32 13 32H15.9C16.5 32 16.9 31.6 16.9 31S16.4 30 15.8 30" fill="#ffffff" data-fill-palette-color="quaternary"></path><path d="M8.6 35.2H5.7C5.1 35.2 4.7 35.6 4.7 36.2S5.1 37.2 5.7 37.2H8.6C9.2 37.2 9.6 36.8 9.6 36.2S9.2 35.2 8.6 35.2" fill="#ffffff" data-fill-palette-color="quaternary"></path><path d="M15.8 35.2H13C12.4 35.2 12 35.6 12 36.2S12.4 37.2 13 37.2H15.9C16.5 37.2 16.9 36.8 16.9 36.2S16.4 35.2 15.8 35.2" fill="#ffffff" data-fill-palette-color="quaternary"></path><path d="M8.6 40.3H5.7C5.1 40.3 4.7 40.7 4.7 41.3S5.1 42.3 5.7 42.3H8.6C9.2 42.3 9.6 41.9 9.6 41.3S9.2 40.3 8.6 40.3" fill="#ffffff" data-fill-palette-color="quaternary"></path><path d="M15.8 40.3H13C12.4 40.3 12 40.7 12 41.3S12.4 42.3 13 42.3H15.9C16.5 42.3 16.9 41.9 16.9 41.3S16.4 40.3 15.8 40.3" fill="#ffffff" data-fill-palette-color="quaternary"></path><path d="M48 34.4C48 27.4 42.7 21.7 36 20.9V1C36 0.4 35.6 0 35 0H1C0.4 0 0 0.4 0 1V47C0 47.6 0.4 48 1 48H35.2C42.3 47.6 48 41.6 48 34.4M2 46V2H34V20.8C26.7 21 20.8 27 20.8 34.4 20.8 39.3 23.4 43.6 27.3 46zM34.4 46C28 46 22.8 40.8 22.8 34.4S28 22.8 34.4 22.8 46 28 46 34.4 40.8 46 34.4 46" fill="#ffffff" data-fill-palette-color="quaternary"></path><path d="M34.4 28.4C35.8 28.4 36.9 29.5 36.9 30.9 36.9 31.5 37.3 31.9 37.9 31.9S38.9 31.5 38.9 30.9C38.9 28.7 37.4 27 35.4 26.5V25.7C35.4 25.1 35 24.7 34.4 24.7S33.4 25.1 33.4 25.7V26.5C31.4 27 29.9 28.8 29.9 30.9 29.9 33.4 31.9 35.4 34.4 35.4 35.8 35.4 36.9 36.5 36.9 37.9S35.8 40.4 34.4 40.4 31.9 39.3 31.9 37.9C31.9 37.3 31.5 36.9 30.9 36.9S29.9 37.3 29.9 37.9C29.9 40.1 31.4 41.8 33.4 42.3V43.1C33.4 43.7 33.8 44.1 34.4 44.1S35.4 43.7 35.4 43.1V42.3C37.4 41.8 38.9 40 38.9 37.9 38.9 35.4 36.9 33.4 34.4 33.4 33 33.4 31.9 32.3 31.9 30.9S33 28.4 34.4 28.4" fill="#ffffff" data-fill-palette-color="quaternary"></path></g></svg></g></svg></g></svg></g></svg></g><g></g></svg></g></svg></g><g><path d="M105.994 42.88A122.216 122.216 0 0 1 289.526 42.88L287.33 42.88A120.02 120.02 0 0 0 108.19 42.88L105.994 42.88M105.994 204.32A122.216 122.216 0 0 0 289.526 204.32L287.33 204.32A120.02 120.02 0 0 1 108.19 204.32L105.994 204.32" fill="#fab980" stroke="transparent" data-fill-palette-color="tertiary"></path></g></svg></g><defs></defs></svg><rect width="395.52" height="247.2" fill="none" stroke="none" visibility="hidden"></rect></g></svg></g></svg>